PathFileType	4	(X/Y/Z)	F:\MotionCapture\20160217\3\Generated_files\EMG_Fprce_test01-Dynamic.trc
DataRate	CameraRate	NumFrames	NumMarkers	Units	OrigDataRate	OrigDataStartFrame	OrigNumFrames
120.00	120.00	       4	39	mm	120.00	285	       569
Frame#	Time	Top.Head			Front.Head			Rear.Head			R.Shoulder			R.Offset			R.Elbow			R.Wrist			L.Shoulder			L.Elbow			L.Wrist			R.ASIS			L.ASIS			V.Sacral			R.Thigh			R.Knee			R.Shank			R.Ankle			R.Heel			R.Toe			L.Thigh			L.Knee			L.Shank			L.Ankle			L.Heel			L.Toe			R1			R2			R3			R4			R5			R6			R7			L1			L2			L3			L4			L5			L6			L7			V_Mid_ASIS			V_Pelvis_Origin			V_R.Hip_JC			V_L.Hip_JC			V_R.Knee_JC			V_L.Knee_JC			V_R.Ankle_JC			V_L.Ankle_JC			V_Mid_Hip			V_Mid_Shoulder			V_R.Hand			V_L.Hand			V_R.Toe_Offset_Static			V_L.Toe_Offset_Static			V_R.Toe_Offset			V_L.Toe_Offset			
		X1	Y1	Z1	X2	Y2	Z2	X3	Y3	Z3	X4	Y4	Z4	X5	Y5	Z5	X6	Y6	Z6	X7	Y7	Z7	X8	Y8	Z8	X9	Y9	Z9	X10	Y10	Z10	X11	Y11	Z11	X12	Y12	Z12	X13	Y13	Z13	X14	Y14	Z14	X15	Y15	Z15	X16	Y16	Z16	X17	Y17	Z17	X18	Y18	Z18	X19	Y19	Z19	X20	Y20	Z20	X21	Y21	Z21	X22	Y22	Z22	X23	Y23	Z23	X24	Y24	Z24	X25	Y25	Z25	X26	Y26	Z26	X27	Y27	Z27	X28	Y28	Z28	X29	Y29	Z29	X30	Y30	Z30	X31	Y31	Z31	X32	Y32	Z32	X33	Y33	Z33	X34	Y34	Z34	X35	Y35	Z35	X36	Y36	Z36	X37	Y37	Z37	X38	Y38	Z38	X39	Y39	Z39	

285	2.367	336.21976	119.16525	1730.97900	217.91930	107.65569	1659.00232	437.97501	119.68340	1652.28931	363.81897	310.63937	1426.85229	500.39081	48.54924	1278.67676	398.79416	431.13968	1109.64771	235.70578	424.13708	902.96802	350.93600	-96.66519	1426.84680	401.60651	-219.89114	1119.93274	309.35840	-253.13269	879.13354				285.78741	-31.14932	952.04730	519.31525	84.40509	948.89545	381.93869	218.64536	460.37714	302.87634	185.57280	560.94135							545.73383	134.56567	43.74717	334.90082	183.62537	38.17469	141.81102	-12.77693	689.36542	178.24980	-77.22583	504.20880	199.69341	3.65877	362.87170	370.44330	-31.16888	139.85367	424.63943	38.79698	143.72432	251.57539	-44.31788	73.36631	288.83804	163.81218	36.93097	329.01425	145.58980	42.82044				500.98718	103.91191	41.67738	516.22412	178.50096	43.17281	442.74887	207.41658	35.58031	376.82510	226.84444	34.50533	206.69501	-30.97804	58.62735	233.06729	-10.59560	72.07970	305.92770	45.11995	109.77537	384.23767	60.52177	130.47644	407.72153	-5.92917	132.41577	347.44379	-48.20346	97.67021	291.97369	-65.39812	78.41469																																																	702.26251	-239.36911	323.15259	412.84885	117.96194	44.69072	410.84204	134.14815	231.39249	479.48920	198.48152	70.27827	307.84940	253.67487	943.07721	
286	2.375	325.34415	119.15497	1730.07886	206.84058	107.60899	1657.70166	426.73935	120.18624	1651.34290	352.46875	310.80045	1425.98560	489.10330	49.52848	1277.61084	384.43640	432.46594	1108.69360	216.17090	423.13235	906.48138	340.27838	-96.07527	1425.52454	394.65659	-219.97794	1120.04736	307.90292	-256.13132	878.13092				274.33493	-30.39393	950.79883	508.58594	84.23524	947.52887	378.00793	219.39226	459.69870	296.67902	185.69516	559.19489							545.65741	134.07356	44.01581	334.91171	183.67685	38.12820	128.98952	-10.51700	690.64978	162.85948	-75.34734	504.62802	177.42671	5.55404	362.78220	334.83524	-29.51784	130.66701	390.70026	39.47542	131.21129	212.89482	-42.18512	71.79002	288.92883	163.92802	36.89692	329.12396	145.74129	42.89117	426.45370	106.54697	51.59871	500.80893	103.63966	41.87695	515.92230	178.22415	43.40687	442.77237	207.37804	35.62031	376.92636	226.83478	34.47563	167.20360	-28.22746	59.88724	193.97029	-8.23809	72.04063	269.35022	47.87569	105.35781	347.88312	62.51702	121.61368	374.13712	-5.85284	121.13032	310.31204	-47.04239	89.56702	253.20082	-63.76228	74.21597																																																	409.32022	133.97961	230.91286	479.20868	198.10759	70.31330	297.83118	254.05127	941.54822	784.13800	115.69820	320.30026	824.96558	-64.07188	-110.26379	
287	2.383	314.35211	119.17403	1728.58569	195.84169	107.96707	1656.54968	416.13589	120.24482	1649.89404	341.05603	311.14951	1424.94641	478.43042	49.97385	1275.57886	370.19601	433.67792	1107.43518	197.02739	422.25278	909.45532	329.75378	-95.72606	1423.75659	388.29544	-219.69232	1119.69812	306.10858	-259.16714	876.43988				263.28046	-30.04589	949.48010	498.17929	83.95142	946.02252	374.91559	218.76849	458.61935	290.16800	185.56744	557.57269							547.15649	133.19913	45.16602	334.86417	183.79572	38.07272	116.58904	-8.54065	691.34479	147.76831	-73.42045	504.73682	156.34465	7.15385	362.62192	299.66663	-29.08480	121.76324	356.51682	40.20849	118.84471	174.83560	-39.59133	70.29812	288.85400	164.25977	36.74752	329.07748	145.76237	42.86814	426.32324	106.36691	51.51194	500.02914	104.09969	42.27090	515.78088	177.87054	43.61012	442.84744	207.21927	35.68135	377.03940	226.89838	34.43515	128.40247	-25.47605	61.88478	155.67870	-5.69662	71.89155	232.71364	50.16899	100.74111	313.01004	63.44585	112.12072	339.87234	-6.19214	110.88617	272.20535	-45.93028	82.28027	214.45618	-61.88046	70.73077																																																	775.94629	-27.55298	-84.50268	582.59308	186.01820	-47.28904	406.99683	134.08665	230.58963	478.90939	197.82774	70.45101	287.55930	254.59892	939.90820	
288	2.392	303.45142	119.34537	1727.20593	185.24930	107.97125	1654.77966	405.16385	120.29797	1648.32263	329.91296	311.68256	1423.65417	467.06232	50.43701	1274.07153	355.71890	434.79523	1106.12488	177.80336	420.85474	912.47681	319.38852	-95.62963	1421.85718	381.32724	-219.96744	1119.67615	304.64951	-262.13287	875.27832				251.75420	-29.65819	947.61627	487.04678	83.92464	944.35608	369.73276	218.71919	457.68686	284.59680	186.09389	555.65771							547.00732	132.85962	45.55925	334.80939	183.91042	38.06205	104.38616	-6.64651	691.25183	133.68098	-71.69504	504.15115	135.23174	9.31030	362.15253	265.02444	-28.13215	113.81627	321.52005	39.95388	106.99430	135.92717	-37.10564	69.89277	288.51306	164.73366	36.61240	329.08478	145.84995	42.78800	426.13187	106.06424	51.37945	499.21985	104.62228	41.50214	515.66345	177.17941	43.93871	442.73862	206.93904	35.74586	377.04706	226.80383	34.42631	89.71194	-22.03534	64.78738	116.90779	-2.66220	73.08842	197.06436	50.91644	96.51921	278.01523	64.12041	102.94041	301.21371	-4.41746	98.78729	233.78578	-44.79187	75.91099	175.06508	-59.59132	68.08245																																																	403.98178	134.80060	229.43675	478.37302	197.37262	70.13532	277.65491	255.24126	938.33606	
